<svg xmlns="http://www.w3.org/2000/svg" width="25" height="31" viewBox="0 0 25 31">
    <path fill="#FFF" fill-rule="evenodd" d="M7.045 15.264c2.3-1.419 4.99-2.74 7.779-2.74 4.012 0 3.816 3.327 3.816 6.312v9.05h-3.327v2.74H25v-2.74h-3.327v-9.148c0-1.908.05-4.159-.832-5.871-1.125-2.202-3.669-3.082-6.017-3.082-2.838 0-5.284 1.174-7.779 2.348V11.4c0-1.076 0-2.446-1.419-2.446-.636 0-.93.391-1.32.832-1.126 1.027-2.74 1.223-4.306 1.32l.44 2.496 3.572-.49v14.775H.685v2.74h9.687v-2.74H7.045V15.264zm1.076-9.393c-.049-.979-.049-2.789 1.37-2.789.832 0 2.006.783 2.691 1.174 1.223.685 2.593 1.468 4.012 1.468 1.761 0 2.935-.685 3.62-1.761.685-1.077.979-2.495.832-3.963h-3.131c-.098.93 0 2.838-1.37 2.838-.734 0-1.761-.685-2.936-1.37C12.035.783 10.714.147 9.295.147c-1.663 0-2.788.685-3.473 1.761-.685 1.076-.93 2.495-.832 3.963h3.131z"/>
</svg>
