<svg xmlns="http://www.w3.org/2000/svg" xmlns:xlink="http://www.w3.org/1999/xlink" width="21" height="29" viewBox="0 0 21 29">
    <defs>
        <path id="a" d="M0 48V0h35v48H0z"/>
    </defs>
    <g fill="none" fill-rule="evenodd" transform="translate(-7 -10)">
        <mask id="b" fill="#fff">
            <use xlink:href="#a"/>
        </mask>
        <path fill="#FFF" d="M25 29.692c-.028-2.177-1.834-4.252-3.938-4.645-.777-.146-1.003.025-1.114.848-.36 2.663-1.36 3.69-3.94 4.28-.406.093-.823.155-1.214.293-2.02.711-2.387 2.325-.831 3.825 1.646 1.588 3.64 1.958 5.81 1.558 2.83-.522 5.262-3.387 5.227-6.159M10.42 19.208c-.529 2.92.223 5.225 2.597 7.13-1.264-4.72-1.2-9.076 1.759-13.003 1.266-1.681 3.29-3.154 4.586-3.335-.033.18-.043.343-.094.493-1.102 3.227-.314 5.62 2.597 7.494 2.46 1.583 4.534 3.46 5.497 6.324 2.2 6.543-1.5 13.255-7.822 14.48-5.986 1.16-10.927-2.647-12.135-7.958-.865-3.8-.415-7.531 2.038-10.791.144-.192.294-.381.457-.557.063-.068.17-.095.52-.277" mask="url(#b)"/>
    </g>
</svg>
